<svg id="Layer_1" data-name="Layer 1" xmlns="http://www.w3.org/2000/svg" viewBox="0 0 144 57.06"><defs><style>.cls-1{fill:#0f6394;}.cls-2{fill:#d9424d;}</style></defs><title>star_logo_light_2</title><path d="M49.42,46.62H50l3.32,8.58H52.7l-.9-2.39H47.62l-.9,2.39H46.1Zm2.15,5.65-1.86-4.91-1.87,4.91Z" transform="translate(0 0)"/><path d="M58.12,46.68h.61v5.38l4.5-5.38H64l-3.19,3.77L64.2,55.2h-.76l-3-4.26-1.67,1.92V55.2h-.61Z" transform="translate(0 0)"/><path d="M65.23,52.1h0A3,3,0,0,1,68,48.85c1.57,0,2.73,1.41,2.73,3.24h0A3,3,0,0,1,68,55.34h0A3,3,0,0,1,65.23,52.1Zm4.86,0h0A2.46,2.46,0,0,0,68,49.39,2.39,2.39,0,0,0,65.83,52h0c0,1.56.95,2.71,2.13,2.71A2.35,2.35,0,0,0,70.09,52.1Z" transform="translate(0 0)"/><path d="M72.41,48.93H73V50a2,2,0,0,1,1.81-1.19A1.89,1.89,0,0,1,76.6,50a2.17,2.17,0,0,1,2-1.24c1.25,0,2.06.89,2.06,2.37v4H80.1V51.31c0-1.3-.58-2-1.56-2a1.81,1.81,0,0,0-1.71,1.91v4h-.57V51.28c0-1.28-.58-2-1.55-2a1.88,1.88,0,0,0-1.73,2v3.9h-.56Z" transform="translate(0 0)"/><path d="M82.22,53.38h0c0-1.24.95-2,2.37-2a5.75,5.75,0,0,1,1.73.26v-.45a1.58,1.58,0,0,0-1.75-1.73,3.39,3.39,0,0,0-1.67.45l-.22-.5a4.33,4.33,0,0,1,1.92-.49,2.25,2.25,0,0,1,1.69.61,2.15,2.15,0,0,1,.58,1.62V55.2h-.56v-1a2.27,2.27,0,0,1-2,1.13,2,2,0,0,1-2.09-1.91ZM86.34,53v-.9a5.7,5.7,0,0,0-1.75-.27c-1.14,0-1.76.61-1.76,1.48h0a1.45,1.45,0,0,0,1.44,1.46h.11A1.89,1.89,0,0,0,86.34,53Z" transform="translate(0 0)"/><path d="M88.88,48.93h.56v1.48a2.46,2.46,0,0,1,2.34-1.57v.61h0a2.34,2.34,0,0,0-2.29,2.62V55.2h-.56Z" transform="translate(0 0)"/><path d="M95.93,52.12V52a3,3,0,0,1,2.73-3.25h0a2.66,2.66,0,0,1,1.95.86l-.36.44a2.23,2.23,0,0,0-1.61-.77c-1.16,0-2.13,1.1-2.13,2.71V52c0,1.67,1,2.69,2.17,2.69a2.24,2.24,0,0,0,1.59-.78l.36.38a2.58,2.58,0,0,1-2,.94C97.12,55.33,95.93,54,95.93,52.12Z" transform="translate(0 0)"/><path d="M101.85,52.1h0a3,3,0,0,1,2.73-3.25c1.57,0,2.73,1.41,2.73,3.24h0a3,3,0,0,1-2.73,3.25h0A3,3,0,0,1,101.85,52.1Zm4.86,0h0a2.19,2.19,0,1,0-4.26,0h0c0,1.56.95,2.71,2.13,2.71S106.71,53.63,106.71,52.1Z" transform="translate(0 0)"/><path d="M109,48.93h.56V50a2,2,0,0,1,1.81-1.19A1.89,1.89,0,0,1,113.22,50a2.17,2.17,0,0,1,2-1.24c1.25,0,2.06.89,2.06,2.37v4h-.56V51.31c0-1.3-.58-2-1.56-2a1.81,1.81,0,0,0-1.71,1.91v4h-.57V51.28c0-1.28-.58-2-1.55-2a1.88,1.88,0,0,0-1.72,2v3.9H109Z" transform="translate(0 0)"/><path d="M119.29,48.93h.56v1.34A2.5,2.5,0,0,1,122,48.8c1.28,0,2.54,1.14,2.54,3.21v.09c0,2.07-1.27,3.24-2.54,3.24a2.47,2.47,0,0,1-2.18-1.44V57h-.56ZM124,52.12V52c0-1.7-.92-2.7-2-2.7A2.43,2.43,0,0,0,119.81,52v.16a2.42,2.42,0,0,0,2.12,2.68H122C123.08,54.8,124,53.85,124,52.12Z" transform="translate(0 0)"/><path d="M125.88,53.38h0c0-1.24.95-2,2.37-2a5.75,5.75,0,0,1,1.73.26v-.45a1.58,1.58,0,0,0-1.75-1.73,3.39,3.39,0,0,0-1.67.45l-.22-.5a4.33,4.33,0,0,1,1.92-.49,2.25,2.25,0,0,1,1.69.61,2.15,2.15,0,0,1,.58,1.62V55.2H130v-1a2.27,2.27,0,0,1-2,1.13,2,2,0,0,1-2.12-1.88S125.88,53.4,125.88,53.38ZM130,53v-.9a5.7,5.7,0,0,0-1.75-.27c-1.14,0-1.76.61-1.76,1.48h0a1.45,1.45,0,0,0,1.4,1.5H128A1.89,1.89,0,0,0,130,53Z" transform="translate(0 0)"/><path d="M132.54,48.93h.56V50a2.15,2.15,0,0,1,4.08,1.13V55.2h-.57V51.31c0-1.27-.6-2-1.65-2a1.9,1.9,0,0,0-1.86,1.94s0,.08,0,.12V55.2h-.56Z" transform="translate(0 0)"/><path d="M143.32,48.93h.61l-2.28,6.39c-.46,1.3-1,1.74-1.82,1.74a2.17,2.17,0,0,1-1-.26l.19-.51a1.6,1.6,0,0,0,.86.23c.55,0,.9-.33,1.29-1.33l-2.51-6.27h.63l2.16,5.55Z" transform="translate(0 0)"/><path class="cls-1" d="M0,34.76A24.66,24.66,0,0,0,16.51,41c8.61,0,14.18-4.66,14.18-11.87,0-6.15-3.58-9.41-12.79-11.65-7.63-1.82-9.71-3.24-9.71-6.59,0-3,2.72-5,6.77-5,3.61,0,7.17,1.33,10.89,4.06l3.56-5A22,22,0,0,0,15.07,0C7.1,0,1.53,4.74,1.53,11.53c0,7.3,4.66,9.8,13.25,11.88C21.87,25,24,26.55,24,29.83s-2.88,5.33-7.35,5.33S8.15,33.57,4,30Z" transform="translate(0 0)"/><path class="cls-1" d="M46.37,40.44h6.71V6.71H65.86V.58H33.6V6.71H46.37Z" transform="translate(0 0)"/><path class="cls-1" d="M136.17,40.44H144L133.19,25.27l.29-.08c6.1-1.68,9.46-6,9.46-12.05,0-7.75-5.65-12.56-14.75-12.56H110.44V40.44h6.66v-14h9.18l.06.09Zm-8.51-19.89H117.09V6.6H127.6c5.52,0,8.55,2.47,8.55,6.94,0,4.26-3.32,7-8.49,7Z" transform="translate(0 0)"/><polygon class="cls-1" points="87.1 0.57 80.54 0.57 63.12 40.44 69.91 40.44 83.68 8 97.46 40.44 104.48 40.44 87.1 0.57"/><polygon class="cls-2" points="83.72 19.91 85.4 25.15 90.9 25.13 86.44 28.35 88.15 33.57 83.72 30.33 79.28 33.57 80.99 28.35 76.53 25.13 82.03 25.15 83.72 19.91"/></svg>